<?xml version="1.0" encoding="UTF-8"?>
<svg enable-background="new 0 0 2956 3332" version="1.1" viewBox="0 0 2956 3332" xmlns="http://www.w3.org/2000/svg">
 <path d="m139.4 71.9c1.4-2 2.9-4 4.5-6 10.8 10.1 24.6 16.7 39 19.8 11.8 2.6 24.5 2.2 35.9-2.1 13.3 7.2 24 18.3 37.6 24.9l60.6 27.3c2.3 1 4.6 1.9 6.6 3.5 14 11.4 28.2 22.6 42.5 33.6 11.2 8.7 22.6 17.4 32 28.1 5 5.3 6.6 12.7 9.6 19.1 7.2 18.5 16.7 35.9 25.5 53.7l30 60c9.9 19.2 18.3 39 27.4 58.6 2.1 4.3 3.6 8.8 6.3 12.7 10.1 14.2 20.1 28.6 30.3 42.8 0.9 1.2 1.5 2.5 2 4 7 20 14.1 39.9 21.1 59.9 1.5 4.4 3.3 8.7 4.4 13.2 6 26.3 12 52.7 18.1 79 0.8 3.6 1.5 7.2 2.8 10.6 7.8 21.8 15.5 43.6 23.3 65.4 1.1 3.2 2.1 6.4 3.9 9.3 21.9 37.9 43.4 76 66.9 112.9 6 10.8 12.7 21.3 19.3 31.7 6.8 10.3 13.7 20.7 22.1 29.9 3.2 3.5 6.8 6.9 11.2 9 1-0.5 2.1-1 3.2-1.4 12.4-24 14.9-51.3 19.3-77.5 1.7-10.3 3.6-20.6 5.2-31 0.6-4.6 2-9.3 1.3-14-1.4-10.2-5.8-19.6-10.9-28.4-7.4-12.5-16.5-23.9-26.3-34.6-2.5-2.9-6.1-4.5-8.8-7.2-11-9-21.6-18.4-32.7-27.2-6.7-5.3-12.6-12.7-13.2-21.5-0.7-6.1 3.9-10.9 7.9-14.9 4.3-3 10.7-3.6 13.1-8.9 2.5-4.4-0.4-9-1.5-13.3-1.1-3.8 1.2-7.9 4.6-9.5 4.3-0.8 8.3 1.5 12.3 2.8-2.7-4.9-6.9-9.4-6.9-15.3-0.2-4.1 3.1-7 6.1-9.3 3-0.1 6.1 1.5 9.1 0.5 3.5-2.1 5-7.2 2.4-10.5-3-4.6-2.8-10.7-0.1-15.4 1.3-2.1 3.9-2.4 6.1-2.8 8.8-0.6 17.6-0.8 26.3-2 6.1-1.7 12.4-1.3 18.5-3-1.4-2.4-3.3-4.4-5.1-6.4 0-3.9 0.1-7.7 0.3-11.6 1.5 5.4 5.5 10.9 11.1 12 5.6-5.9 9.5-13.2 15.4-18.9-2.6-15 2.7-30.3 11.3-42.5 2.2-3.4 5.7-5.7 8-9 4.2-5.6 10.3-9.5 16.6-12.3 10.5-4.7 21.9-6.7 33.1-8.4 32-4.5 65.5-0.5 95.1 12.8 3.1 1.4 6.7 0.7 9.9 1.9 19.8 10 39.8 19.9 57 34.1 22.8 18 40.1 41.6 56.4 65.4 4.4 11.4 8.4 23 12.6 34.5 2.6 7 3.2 14.6 5 21.9 1 3.9 2.5 7.9 5.5 10.7 6.5 6.1 13.1 12.3 19.6 18.5 0 9.6 0.6 19.2 0.4 28.8-4 14.9-10.6 29-17.7 42.7-6.2 11.5-12.9 22.7-21.2 32.9-3.8 4-7.1 9.5-12.8 11-13.1 2.3-26.5-0.9-39.5 1.3-17.4 5.2-29.5 20.1-45.8 27.6-8.9 4.4-17.8 8.9-26.7 13.3-8.9 5.1-19.3 6.7-28.9 10-3.7 6.1-7.8 12-11.3 18.2 7 10.6 14.9 21 25.4 28.3 3.1 1.9 6.4 3.7 8.7 6.7 16.4-14 32.6-28.3 48.6-42.7 2.5-2.2 4.8-4.7 7.8-6.3 17.1-8.9 34.2-17.8 51.2-26.8 15.6-9 31.4-17.5 47.5-25.5 20.1-10.1 40.9-19 61.2-28.6 7.3-3.7 15.4-6.1 21.7-11.3 16.5-12.2 33-24.4 49.5-36.5 47.3-34.1 90.8-73.1 135.8-110.1 5.8-4.3 9.9-10.3 14.7-15.5 14.6-16.8 29.2-33.5 43.7-50.3 2.1-2.7 5.5-4 8.4-5.7 16.7-9.6 33.6-19.1 50.3-28.7 45.5-27.4 91.1-54.8 136.6-82.3 22.9-16.4 45.7-33 68.5-49.5 3.1-4 8-6 12.1-8.8 25.6-15.8 50.9-32.8 79.5-42.6 25.2-8.4 52.2-6.2 78.3-8.8 63-8 126.1-14.4 189.4-19.5 3.7 7.9-0.8 17.6-7.8 22-10.9 3.6-22 6.7-33 10-1.8 0.7-4.1 0.8-5.4 2.5 10 4.9 21.1 6.8 32.1 7.6 9.7 0.9 19.6 1.1 29 4 0.3 1.8 0.6 3.6 1 5.4-6.7 6.5-16.5 7.5-25.4 8.1-20.3 0.9-40.5-2.3-60.2-6.7-10.4-2.5-20.7-5.5-30.4-10.1-13.5 10.3-28.2 19.1-41.5 29.8 15.4 7.7 32.6 12 46.9 22.1 6.5 4.5 12 11.6 11.6 19.9 0.6 4.3-2.3 8.8-6.5 9.7-5.3 0.5-10.5-1.2-15.3-3.3-9.3-4.2-17.6-10.4-26.5-15.5-6.3-3.6-12.9-7.4-20.3-8.2-32.5-5.2-64.9-10.3-97.4-15.5-23.1 17.3-46.2 34.6-69.2 52-13 11.3-25.1 23.5-37.3 35.7-26.1 26-52.6 51.6-81.2 74.8-16.3 14.7-32.1 29.9-48.4 44.5-26.5 16.9-53.2 33.5-79.7 50.3-5.3 3.7-11.4 6.3-15.8 11.1-41 40.7-82.5 80.9-123.7 121.5-15.1 15.2-30.1 30.5-45.3 45.7-31 27.3-62.1 54.6-93.1 81.9-11.8 10.6-24.1 20.6-35.2 31.9-22 21.7-44.9 42.5-67.4 63.7-2.1 2.2-5.1 3.8-6 6.9-5.5 18-12.7 35.5-17.4 53.8-8.9 33.8-18.3 67.5-27.6 101.2-2.1 8.1-2.7 16.5-3.1 24.8-0.9 24.6 1.4 49.2 2 73.9 10.3 8.4 20.7 16.7 31.1 25.1 38.6-0.2 77.2-0.3 115.8-0.6 15.9-2 31.9-1.7 47.8-0.6 8 0.5 16 2.2 24.1 2.1 8 0.1 16 1.3 24 0.4 9.7 1.5 19.8-0.2 28.4-4.9 46-24 91.9-48.1 137.9-72.1 2.5-1.2 4.8-3 7.6-3.2 6.7-0.6 13.3-2.3 19.7-4.4 2.8-0.9 4.9-3.1 7.2-4.8 14.7-11.6 29.4-23.1 44.1-34.7 14.7-11.4 28.9-23.4 44.5-33.6 34-22.7 70.5-41.9 109.4-54.7 8.2-2.4 16.4-5.6 25.1-5.4 8.8-0.9 18 0.3 26.4-3 18.3-6.2 35.2-16.2 53.9-21 7.7-1.8 16.5-3 23.8 0.5 2.9 6.7 4.6 13.8 8.3 20.2 4.9-1.9 9.7-4.2 14.6-6.3 2.4 1.5 5.2 2.8 7.1 5 3.1 5-1.5 11.3 1.7 16.3 6.7 12 13.3 24 20 36-4.3 12.8-16.7 20.2-28.2 25.8 20.2-5.2 40.4-10.5 60.6-15.5 21.4-5.7 43.2-10 64.8-14.7 3.7-0.8 7.4-1.4 11-2.6 33.6-12.7 67.2-25.5 100.8-38.3 4.9-1.6 10.1-2.4 15.1-3.6 32.3-7 64.7-14 97-21 12.3-2.4 24.4-5.9 36.9-7.2 59.7-7.8 119.5-14.8 179.2-22.2 58.4-11.9 116-28.2 172-48.8 14.5-5.1 28.4-12.1 40.7-21.3 20.2-14.7 36.4-33.8 52.1-53 9-9.3 18.4-18.3 27.5-27.6 5.4-6.2 10.8-12.5 16.7-18.2 24.3-24 51.9-44.6 81.7-61.2 18.9-10.3 39-19.2 60.3-23.1 3.7-1 6.6 2.3 9.7 3.7 16.2 9.3 27.2 25 36.4 40.8-1.6 17.5-9 33.8-18.6 48.3-5.4 8.2-11.4 15.9-17.2 23.7-6.9 9-12.8 18.6-19.2 28-1.8 2.3-4.4 3.5-6.7 5.2-9.8 6.6-19.7 13-29.4 19.8-28.5 23.4-57.1 46.8-85.4 70.4-7.9 6.3-16.1 12.3-25.2 16.9-17.6 8.4-36.3 14-55 19.1-43.7 11.8-88.9 18.6-130.9 35.9-7.1 3.6-13.6 8.4-20.4 12.5-34.9 21.6-69.1 44.4-105 64.3-41 23.2-83.3 44-125.1 65.7-9.9 5.1-19.7 10.3-29.7 15.3-18.2 7.4-37.6 11-56.6 15.3-35 8.2-69.7 17.6-103.6 29.6-5.9 2.3-12 4-17.4 7.4-23.6 13.5-47.1 27-70.7 40.4-4.3 2.3-8.4 5.3-13.1 6.9-52.3 19.1-104.5 38.2-156.8 57.2-4.6 1.4-8.5 4.1-12.6 6.4-15.6 8.7-31.1 17.6-46.7 26.3-15.9 7.8-31.9 15.3-47.8 23.2 2.3 15.8 6.1 31.5 5.6 47.5-1 25.3-19.3 47.1-16.9 72.9-4.4 3.6-10.1 4.8-15.6 5.1-2.6 0.4-6.1 0.4-7.5 3.1-2.8 4.7-5.3 9.6-8.1 14.2-13.1-2.4-26.1-4.7-39.2-6.9-5.6 6.5-9.7 14.5-16.8 19.6-5.6 4.3-13.2 2.5-19.5 4.5-10.8 8.6-21.5 17.4-32.2 26.2 0.6 3.4 1.2 6.8 1.9 10.3-60.7 24.2-118.1 55.6-174.2 89-0.4 6.6 0 13.3-1.2 19.9-5 32.3-9.3 64.7-14.7 96.9-0.8 44.7-1.2 89.4-1.9 134.1-0.5 21 0.2 42-1.7 63-6 85.7-12.1 171.4-18.1 257-0.2 3.5-0.9 7.1-0.2 10.6 3.4 15.2 6.8 30.3 10.2 45.5 1.6 8.5 4.5 16.8 4.8 25.5 1.8 27.8 3.9 55.5 5.5 83.3-0.3 42 0.6 84 1.3 126 0.1 3.6-0.9 7.2-1.6 10.7-10.1 47.3-24.6 93.6-40.9 139.2-13.9 39.1-29 77.8-43 116.8-10.3 29.1-19.3 58.7-29 88-3.7 13.4-1.9 28.2 5.2 40.2 8.1 14.1 21.1 24.4 32.3 35.9 5.7 5.7 10.1 12.6 14.6 19.2 1.3 5.3-0.3 10.8-1.9 15.8-5 14.2-12.8 27.3-21.6 39.5-5.7 8.3-14.3 13.7-21.7 20.3-4.5 4.2-10.2 7.2-13.1 12.8-5.3 8.7-8.2 18.6-10.3 28.4-1.9 9.3-4 18.6-5.3 28.1-0.4 3.6-1.7 7.2-1.1 10.9 4.2 25.7 10.4 51.1 12.4 77.1 1.2 18.1 0.7 37.1-7.5 53.7-3.1 5.7-6.6 11.2-10.1 16.8-8.4 1.7-16.8 3.6-25.2 5.3-8.1-5.6-16.4-11.1-24.6-16.6-4.2-2.1-5-7.2-7.3-10.9-7.4-15.7-16.6-30.6-23.3-46.6-15.8-36.8-25.9-75.7-34.4-114.7-1.1-4.6-0.7-9.3-0.9-13.9-0.4-16-0.5-32-1-48-0.3-13.5-0.4-27.2 2.5-40.4 11.9-44.5 23.9-88.9 35.8-133.4 2.1-8.8 5.4-17.3 6.2-26.3 2.1-16.3 4.2-32.6 6.4-48.9 8.9-46.4 10.8-93.8 17.4-140.5 1.1-8.9 3.1-17.6 3.5-26.5 2.3-25.3 4-50.7 6.9-76 5.2-48.2 10.7-96.5 15.6-144.7-8.5-33.2-17.6-66.2-26.2-99.4-8.4-52.8-16.4-105.7-25.1-158.4-0.9 0.1-2.6 0.4-3.5 0.6-14-49.7-28-99.4-41.8-149.1-1.4-28.3-1.8-56.7-2.9-85-0.9-28.3-1.8-56.6-2.8-84.9-9.2 4.5-17 11-25.2 17-1.9 1.4-3.7 3.1-6.1 3.6-4.9 1.2-9.9 2.4-14.8 3.5-2.9 3.8-5.6 7.7-8.4 11.6-1.6 2.5-4.4 3.6-6.8 5.1-3.3 2.1-6.8 3.8-9.9 6.1-2.1 3.7-2.1 8-2.6 12.1-1.1 16.5-0.5 33.1 0.5 49.6-3.8 6-10.5 9.2-17.1 11-14.3 4-29.4 4.2-43.5 8.8-6 1.9-11.9 5-16 9.8-9.5 10.7-15 24.2-19 37.8-5.4 18.2-8.7 37-15.6 54.7-4.8 12.2-11.6 23.7-21.3 32.6-6-4.6-13.4-6.7-20.3-9.5-5.5-2.3-10.3-6-14.1-10.5-6.8 2.8-13.6 5.5-20.4 8.3-7.8-6.9-15.4-14.2-23.1-21.1-9.8 15.5-28.6 21.5-39.4 36-10.8-6.3-18.6-16.6-24-27.7-6.7 0-13.4 0.2-20.1 0.3-1.5-0.1-3.3 0.3-4.5-0.8-4.8-3.7-8.5-8.8-10.3-14.6-2.1-6.6-1.8-13.7-1.4-20.5-10.9-7.4-24.5-8-36.5-12.9 5.6-20 11.4-40 17.1-60.1 5.2-22.4 10.3-44.8 15.5-67.2 0.7-2.9 0.9-6 2.6-8.6 21.8-33.2 43.5-66.5 65.3-99.7 3.2-4.6 5.4-9.8 8.1-14.8 19.7-38 39.3-76 59.1-113.9 9.1-14.6 24.7-23.4 34.7-37.2 9.5-15.2 17-31.8 28.1-46 2.8-4 5.7-7.9 8.5-11.9-14-13.7-28-27.5-42.1-41.2-4.3-4.4-9.3-8-13.9-12-15.4-13.2-30-27.4-43.5-42.7-11-13.6-23.8-25.5-35.8-38.2-14.7-15.3-29.7-30.4-44.2-45.8-18.4-24.6-36.6-49.4-54.9-74.1-5.1-6.5-9.5-13.7-15.3-19.6-12.6-13.8-25.4-27.4-37.8-41.3-6.3-13.8-12.2-27.8-18.3-41.7-2.1-9.4-2.7-19-4.7-28.5-4.6-22.6-6.6-46-3.5-69 1.2-7.9 1.2-16 1.7-24 0.5-6.7 0.1-13.5 1.9-20 5.1-22.3 11.8-44.8 10.2-68-0.5-10.9-5.6-20.6-9.7-30.4-11.1-25.3-24-49.8-36.5-74.4-12.6-25.1-24.4-50.7-37.5-75.5-4.6-9-9.5-17.9-13.9-27-23.9-69.8-47.6-139.8-71.5-209.6-23.2-59.7-46.9-119.4-66.5-180.4-2.8-8.7-5.8-17.4-7.9-26.3-9.4-37.3-18.8-74.6-28-111.9-1-3.9-3.1-7.5-4.8-11.2-7.3-15.4-14.5-30.8-21.7-46.2-2.8-6.2-7.5-11.2-11.7-16.3-8.6-9.7-18.6-19.6-31.8-22.2-9.5 0.5-19 1.9-28.6 2.4-11.7-3.7-23.2-8.1-34.9-12-17.1-4.5-34.9 0.7-52-2.8-1.4-3.2-2.8-6.4-4.1-9.7 5.4-6.5 14-8.8 22.1-9.3 12.1-0.7 24.2 0.9 36.3 1.3 0-2.2 0-4.5 0.1-6.7-9.8-6-19.7-11.7-29.6-17.6-4.1-2.5-9.1-3.1-13.9-2.8-20.1 1.8-38.5 12.8-58.9 12.5-6.9 0.1-13.5-2.6-18.5-7.3 0.9-2.2 1.8-4.5 2.6-6.8 14.9 0.3 30.9-0.5 43.4-9.6-12.4-5.7-25.8-8.7-37.9-14.9v-9.5c13.7 3.1 27.3 6.6 41 9.5-2.3-5.5-7-9.5-10-14.6z"/>
</svg>
